<?xml version="1.0" encoding="utf-8"?>
<!-- Generator: Adobe Illustrator 26.3.1, SVG Export Plug-In . SVG Version: 6.00 Build 0)  -->
<svg version="1.1" id="Layer_1" xmlns="http://www.w3.org/2000/svg" xmlns:xlink="http://www.w3.org/1999/xlink" x="0px" y="0px"
	 viewBox="0 0 88.1 32" style="enable-background:new 0 0 88.1 32;" xml:space="preserve">
<style type="text/css">
	.st0{fill-rule:evenodd;clip-rule:evenodd;fill:#3BB149;}
</style>
<path class="st0" d="M81.3,7.6h-4.5c-2.4,0-5.2,1-6.1,4.6l-0.5,2.2c0.9-1.4,2.3-1.8,4.4-2c3.6-0.2,8.7,0.2,8.7,0.2s-0.1,1.4-0.5,3
	c-0.4,3.1-3.5,4.6-6.9,4.6h-6.8l0.6,0.2l-2.6,9.9c0,0-4,0-5.7,0c-0.8,0-1.4-0.2-2-0.6c-0.1-0.1-0.1-0.1-0.2-0.2v0
	c-0.4-0.4-0.6-1.1-0.4-2.1c0-0.1,3-15.2,3-15.2c1.8-8.8,6.7-11.8,14.6-11.8H87c0,0-0.3,1.9-0.7,3.9C85.7,6.7,84.2,7.6,81.3,7.6z
	 M53.7,7.7c0,0-2.2-0.3-4.4-0.2c-3.5,0.2-5.8,1.8-7.8,4.4c-1.2,2.2-1.7,6.2-1.7,7.6c-0.2,4.2,3.3,3.8,4.6,3.8c1.8,0,4.5-0.7,5.3-4.5
	c-1.2,0-5.6,0-5.6,0s0.4-1.6,0.5-2.3c0.3-1.7,1.1-4.2,4.8-4.2l4.4,0c3.7,0,5.1,2.1,4.5,5.4c0.4,1.2-0.9,6-4.6,9.7
	c0,0-3.6,3.3-10.2,3.3c0,0-5.8,0.3-9.2-2.6c0,0-5-3.6-2.5-13.1c0,0,1.1-6.5,5.6-10.4c0,0,4.6-4.3,12.8-4.3c0,0,3.8,0,6.5,0.8
	c1.8,0.5,2.7,1,2.7,1s-0.8,2.5-1.9,4.8C57.5,6.7,56.4,8,53.7,7.7z M23.9,14.9c0,0,6,0.9,4.8,7c0,0-0.8,4.3-4.5,6.4
	c-1.3,1.3-4.8,2-9.5,2c0,0-8.3,0-10.4,0c-2.4,0-3.8-0.9-3.3-3.4c0.2-1.1,2.2-10.7,3.7-18.6c1-5.1,3.6-7.9,9.1-7.9h7.7
	c3.1,0,5,0.4,6.5,1.4c3.2,2,2.2,6.8,2.2,6.8C29.1,13.9,23.9,14.9,23.9,14.9z M10.7,23.1c0,0,3.6,0,6,0c2.7,0,4.2-1.4,3.6-2.4
	c0.4-2.4-1.8-2.4-3.1-2.4c-0.9,0-5.5,0-5.5,0L10.7,23.1z M19.4,7.7h-4.1c-0.9,0-1.8,0.7-2,1.6c-0.2,0.9-0.4,2.5-0.4,2.5s1.4,0,4.7,0
	c2.2,0,3.8-0.5,3.7-2.2C21.6,7.6,19.4,7.7,19.4,7.7z"/>
</svg>
